PathFileType	4	(X/Y/Z)	/Users/visionmauri/Downloads/Videos/OAW08-top_Sports2D/OAW08-top_Sports2D_m_person00.trc
DataRate	CameraRate	NumFrames	NumMarkers	Units	OrigDataRate	OrigDataStartFrame	OrigNumFrames
30.0	30.0	11	22	m	30.0	1876	2144
Frame#	Time	Hip			RHip			RKnee			RAnkle			RBigToe			RSmallToe			RHeel			LHip			LKnee			LAnkle			LBigToe			LSmallToe			LHeel			Neck			Head			Nose			RShoulder			RElbow			RWrist			LShoulder			LElbow			LWrist			
		X1	Y1	Z1	X2	Y2	Z2	X3	Y3	Z3	X4	Y4	Z4	X5	Y5	Z5	X6	Y6	Z6	X7	Y7	Z7	X8	Y8	Z8	X9	Y9	Z9	X10	Y10	Z10	X11	Y11	Z11	X12	Y12	Z12	X13	Y13	Z13	X14	Y14	Z14	X15	Y15	Z15	X16	Y16	Z16	X17	Y17	Z17	X18	Y18	Z18	X19	Y19	Z19	X20	Y20	Z20	X21	Y21	Z21	X22	Y22	Z22
1876	62.56251361020377	2.690962620762998	-0.6685406003062159	0.0301	2.7869258524188933	-0.638501543524185	0.0301	3.245805054635927	-1.1224279750728674	0.129	3.5670105077834258	-1.6658048328402788	0.023	3.830096885561421	-1.5832560760528402	0.2179	3.8399084732877027	-1.647668807966597	0.1804	3.5602027191303813	-1.8179006603215173	-0.0119	2.609924572339428	-0.732182081866447	0.0301	3.054812798328921	-1.0819740198643037	0.129	3.3511275899157735	-1.5741117395540571	0.023	3.5149053417870575	-1.4161782623878698	0.2179	3.4253420275128352	-1.4344830461870373	0.1804	3.3446035678235804	-1.6781225808259803	-0.0119	2.1508419757163812	0.2608961106398004	0.0008	1.9569017650734963	0.6793043837899202	0.0655	2.139837992741698	0.4902914182940561	0.1076	2.411166982816243	0.17589245881198737	-0.01275	2.945168739132643	-0.16922784810384855	0.0702	3.511045051787801	-0.3467828510176273	0.1076	1.9924627355150764	0.016096451690059032	-0.01275	2.0927995580819636	-0.4266401745088469	0.0702	2.2350383255203017	-0.6892127490725855	0.1076
1877	62.59586249805569	2.683419602749035	-0.6701695836102469	0.0301	2.784449671232077	-0.6319293234007717	0.0301	3.2482512772155623	-1.1289268059143849	0.129	3.566498975577753	-1.6661054285333896	0.023	3.8188219620725485	-1.5855387793393605	0.2179	3.8398558015369515	-1.6473313095948987	0.1804	3.566319200189118	-1.8152822971612927	-0.0119	2.5937850395345214	-0.7414905074266518	0.0301	3.0314103255448592	-1.1019455090608272	0.129	3.3513843364400353	-1.5999801996020007	0.023	3.529950114849508	-1.4801919014678544	0.2179	3.4406787527346867	-1.5091492882186741	0.1804	3.3565103038476582	-1.7055587042885567	-0.0119	2.1330883673046768	0.2576534748893852	0.0008	1.9345245621530123	0.6645127910877348	0.0655	2.1186856056117316	0.479111910568572	0.1076	2.4053192704000175	0.19361098207254995	-0.01275	2.926965418345723	-0.13972259594667907	0.0702	3.4804143399372722	-0.29760104781042473	0.1076	1.9650045956168	0.0018128832245252334	-0.01275	2.079754467419775	-0.4455634929909445	0.0702	2.236380780734492	-0.7471754679220881	0.1076
1878	62.62921138590761	2.67692957769217	-0.673682682296548	0.0301	2.785960613002565	-0.6288667560550869	0.0301	3.2484349652487654	-1.130710120307988	0.129	3.566265895667005	-1.6674601523137897	0.023	3.8078074748591586	-1.5860189433081335	0.2179	3.838978691660202	-1.6476787455333073	0.1804	3.5686661337322176	-1.8144188271084782	-0.0119	2.581996786067445	-0.751783231846649	0.0301	3.0139570137778326	-1.1165576931027108	0.129	3.3501417292410838	-1.61640670861374	0.023	3.531086968865209	-1.5063711106882658	0.2179	3.4492687046832855	-1.5481224308712511	0.1804	3.364896707161589	-1.7194486721575843	-0.0119	2.114657051338257	0.2586038197905278	0.0008	1.9124884264642363	0.6511941640732557	0.0655	2.097792041848186	0.47695879417039294	0.1076	2.396790478602374	0.20987437019781485	-0.01275	2.908528283670294	-0.11822416809940009	0.0702	3.442849671795483	-0.26208150317021495	0.1076	1.9415625092089541	-0.006457964234708366	-0.01275	2.0791037242193	-0.46758517867905935	0.0702	2.2513300498312145	-0.7968801325025644	0.1076
1879	62.66256027375953	2.6710213621114622	-0.6750737233977142	0.0301	2.7901310500350456	-0.6283054339285423	0.0301	3.2467242354331387	-1.128097171280922	0.129	3.568125015477494	-1.6680399536915052	0.023	3.803367937541076	-1.5850200305029434	0.2179	3.838584641156448	-1.6472932636638755	0.1804	3.571590447222159	-1.8152095004163877	-0.0119	2.5751227924367024	-0.7582946062980981	0.0301	3.0028123388969155	-1.1278327182889676	0.129	3.3527234052416888	-1.6363157875630405	0.023	3.524193536153641	-1.5147261066232456	0.2179	3.4549880638805406	-1.5680815606475684	0.1804	3.375363239112693	-1.7330759831900842	-0.0119	2.0943488441931954	0.2567958486058903	0.0008	1.8868203805123975	0.6375255002466016	0.0655	2.071602222308878	0.4730797523073858	0.1076	2.383603796695337	0.2251081669578551	-0.01275	2.8876593867018947	-0.10173973154878146	0.0702	3.400224579712683	-0.23525668926173518	0.1076	1.9222607988803455	-0.01783256733066453	-0.01275	2.0845187645337773	-0.49174545692771304	0.0702	2.2631413855036655	-0.8346425589635148	0.1076
1880	62.69590916161145	2.6670699378141385	-0.6727576710434293	0.0301	2.796287055634398	-0.6276336401741314	0.0301	3.243727934163012	-1.1194846654154262	0.129	3.571736928643837	-1.6660133633850347	0.023	3.806313809749588	-1.5841752185554194	0.2179	3.8398340420554002	-1.6439824100147293	0.1804	3.579463818106827	-1.813052123980508	-0.0119	2.571410472125634	-0.759475373645296	0.0301	2.9940620640807647	-1.1380618739525563	0.129	3.361978445238844	-1.6608071448058266	0.023	3.522407210584107	-1.5265554162051922	0.2179	3.4713487307710857	-1.5943123859092034	0.1804	3.3912608477290127	-1.7510466033331724	-0.0119	2.0735453661420156	0.2511307811075896	0.0008	1.8617009712294907	0.6189197514069721	0.0655	2.0472193586946714	0.4651196076825622	0.1076	2.3691988097557815	0.23772105800604582	-0.01275	2.8658506122484204	-0.0912517390120158	0.0702	3.3531515823130333	-0.21524715509193346	0.1076	1.9051569339535017	-0.034767139552078406	-0.01275	2.091128696629302	-0.5142749013479359	0.0702	2.273381001957632	-0.8632969628528497	0.1076
1881	62.729258049463375	2.6617047589874083	-0.6671813727434012	0.0301	2.7997464935331635	-0.6233038591575997	0.0301	3.239497702605204	-1.1001134413567542	0.129	3.57517947242943	-1.6596918232584483	0.023	3.8115293478064243	-1.5818478029980052	0.2179	3.8423708642799657	-1.6356629106401868	0.1804	3.5899753089003332	-1.8056210888704711	-0.0119	2.566273601270915	-0.759652960267247	0.0301	2.984358839376102	-1.1478777294858982	0.129	3.37558747484369	-1.6816731545209163	0.023	3.529185515225995	-1.541694756135927	0.2179	3.4977643388052733	-1.6284925595508593	0.1804	3.4096884146381825	-1.770755744172182	-0.0119	2.0532578102632844	0.24524006911929203	0.0008	1.8409967310312285	0.5948251740389554	0.0655	2.029476022277902	0.456146846657298	0.1076	2.355933114645414	0.24826599509746772	-0.01275	2.8441813399006644	-0.08806870193145884	0.0702	3.3007632993714524	-0.20359888041799776	0.1076	1.8862798635912637	-0.05189534366524441	-0.01275	2.0967183547795325	-0.5331453921599961	0.0702	2.287859609351823	-0.8859741088440364	0.1076
1882	62.7626069373153	2.651588558158002	-0.6608855487994032	0.0301	2.798795802020789	-0.6159516527761063	0.0301	3.2377458046041747	-1.0713081279054841	0.129	3.5768419467267822	-1.6499361046000205	0.023	3.8151917364188246	-1.5752989572044538	0.2179	3.844549515288501	-1.6243494653455282	0.1804	3.597580913079335	-1.7970208935405174	-0.0119	2.5580536314985527	-0.7639304089553617	0.0301	2.974163368295617	-1.1573001510597134	0.129	3.3857339162874465	-1.6909312006812989	0.023	3.5277467414778867	-1.5427069089885732	0.2179	3.510132371651962	-1.6494804478188987	0.1804	3.4245215332709	-1.7862853993208052	-0.0119	2.0314346165851975	0.24179250478457945	0.0008	1.818467221460933	0.5730065312201212	0.0655	2.0120238797175523	0.45092716970203073	0.1076	2.343084025764219	0.2583530365654862	-0.01275	2.82228943603248	-0.08948681489647783	0.0702	3.240254807941429	-0.1986552281775722	0.1076	1.864706992085607	-0.0644549981002545	-0.01275	2.1013234204380855	-0.5490450765788074	0.0702	2.3079303542510425	-0.9007862458439052	0.1076
1883	62.79595582516722	2.6400786254342044	-0.656117266436463	0.0301	2.7992236767423253	-0.6109698848779177	0.0301	3.243866207829954	-1.04174893985495	0.129	3.5778374661293024	-1.6389145058367511	0.023	3.818743076578872	-1.565368117587519	0.2179	3.8449397683154314	-1.6149601338546842	0.1804	3.5999180034902363	-1.790640339313567	-0.0119	2.5512963571801808	-0.7705778574130756	0.0301	2.9647443937973703	-1.1656684176022032	0.129	3.384978097558515	-1.6862075520684443	0.023	3.4991122597560707	-1.5264632813078036	0.2179	3.4880419622648042	-1.644346958338752	0.1804	3.4299744106120023	-1.7912018420763882	-0.0119	2.0063112368418836	0.2417181222348772	0.0008	1.7868786133522603	0.560274225676905	0.0655	1.9876296873706234	0.45132278711894824	0.1076	2.329618619113395	0.26626193288111166	-0.01275	2.7991552047534816	-0.09005408431087616	0.0702	3.1710368863580993	-0.19683566219715312	0.1076	1.8442128244127582	-0.07420291749512051	-0.01275	2.1033398837032196	-0.5621386424700268	0.0702	2.327817067044034	-0.9050974851690501	0.1076
1884	62.829304713019134	2.6283845629996447	-0.649969077004227	0.0301	2.8001426383213617	-0.6082597563881733	0.0301	3.253622973966138	-1.014514685195519	0.129	3.5804420348656127	-1.625988886195413	0.023	3.820758324451974	-1.5515715230014997	0.2179	3.842305030562941	-1.6066029102332848	0.1804	3.5977249153730955	-1.781665945756165	-0.0119	2.5477641889327565	-0.774797296932257	0.0301	2.9550239193563925	-1.1695490258860843	0.129	3.372864084465278	-1.6703190659853704	0.023	3.4458843976128324	-1.5136474493531535	0.2179	3.4356090368203507	-1.621696775508988	0.1804	3.4238885454925647	-1.7809283644555343	-0.0119	1.9804443064654829	0.24338343550218003	0.0008	1.7523373787443823	0.5528303953712184	0.0655	1.9602182861119717	0.4503485171799509	0.1076	2.316142817956774	0.2690425928994892	-0.01275	2.7735890748017646	-0.08542542759980362	0.0702	3.098915946333626	-0.19715753781509252	0.1076	1.8284194712505133	-0.08427914164116589	-0.01275	2.10008287299964	-0.5710641189684388	0.0702	2.3389640054980867	-0.900107761253874	0.1076
1885	62.862653600871056	2.6135247019048875	-0.638664416367403	0.0301	2.7928070825655715	-0.6006100315460584	0.0301	3.2557501566718012	-0.9864370687934986	0.129	3.583408367075633	-1.6068337408163231	0.023	3.811470319507588	-1.5275077811266773	0.2179	3.832124715301924	-1.5882617748545478	0.1804	3.593203978755515	-1.760606682843922	-0.0119	2.541547859933653	-0.7742931439497615	0.0301	2.9446294788639817	-1.1667972581150274	0.129	3.3569265233914964	-1.6518304351979463	0.023	3.390572397117427	-1.5209404248456946	0.2179	3.373349280755605	-1.6036839347071536	0.1804	3.4137826117143995	-1.7603010444774796	-0.0119	1.95969901528275	0.2423151347493684	0.0008	1.7281841954067474	0.5432153561586505	0.0655	1.940359302881969	0.4402653673149074	0.1076	2.30417459915606	0.2679515845853573	-0.01275	2.7453890927358024	-0.07415353564420127	0.0702	3.0326660984589284	-0.19935827473536627	0.1076	1.8171725132521972	-0.09241919427108627	-0.01275	2.0914695185656025	-0.5752103333688818	0.0702	2.3372803952567023	-0.8917935849265147	0.1076
1886	62.89600248872298	2.596215298766608	-0.6234892790159957	0.0301	2.7760195601183786	-0.5835953606660602	0.0301	3.2445861376667193	-0.9564743285839729	0.129	3.5817084048076286	-1.576172075300078	0.023	3.7845084256657313	-1.4872691711521275	0.2179	3.8092001529675197	-1.5482072402424794	0.1804	3.588033280507631	-1.722793398938491	-0.0119	2.527619530292536	-0.7664822517218132	0.0301	2.9346300790886475	-1.1597618857205254	0.129	3.344378370355703	-1.6383764965482541	0.023	3.354810524154232	-1.5421197779937323	0.2179	3.321438032309488	-1.6073608185794424	0.1804	3.4099206048097357	-1.7419456350075382	-0.0119	1.9472855526878572	0.23652594216849282	0.0008	1.7172644582784455	0.5316262365471633	0.0655	1.9291463122441375	0.42194394515221323	0.1076	2.29364807085087	0.268748354793926	-0.01275	2.71572310733134	-0.0576786048226005	0.0702	2.977345668556651	-0.20230267001487653	0.1076	1.8072838259299786	-0.09381810059677277	-0.01275	2.0779897981216786	-0.5731360406473653	0.0702	2.3233908982198836	-0.886126100117397	0.1076
